{
  "accessors": [
    {
      "bufferView": 2,
      "componentType": 5126,
      "count": 65534,
      "max": [
        50.0,
        22.22576904296875,
        50.0
      ],
      "min": [
        -50.0,
        0.0,
        -50.0
      ],
      "type": "VEC3"
    },
    {
      "bufferView": 2,
      "byteOffset": 786408,
      "componentType": 5126,
      "count": 65534,
      "max": [
        1.0,
        1.0,
        1.0
      ],
      "min": [
        -1.0,
        -1.0,
        -1.0
      ],
      "type": "VEC3"
    },
    {
      "bufferView": 1,
      "componentType": 5126,
      "count": 65534,
      "max": [
        0.719565212726593,
        0.7165131568908691
      ],
      "min": [
        0.28348687291145325,
        0.23981055617332458
      ],
      "type": "VEC2"
    },
    {
      "bufferView": 0,
      "componentType": 5125,
      "count": 65547,
      "type": "SCALAR"
    },
    {
      "bufferView": 2,
      "byteOffset": 1572816,
      "componentType": 5126,
      "count": 65532,
      "max": [
        39.770816802978516,
        22.22576904296875,
        39.04994583129883
      ],
      "min": [
        -39.20769119262695,
        2.2742300033569336,
        -39.4892463684082
      ],
      "type": "VEC3"
    },
    {
      "bufferView": 2,
      "byteOffset": 2359200,
      "componentType": 5126,
      "count": 65532,
      "max": [
        0.9987318515777588,
        0.999822199344635,
        0.9987332820892334
      ],
      "min": [
        -0.998731791973114,
        -0.9998221397399902,
        -1.0
      ],
      "type": "VEC3"
    },
    {
      "bufferView": 1,
      "byteOffset": 524272,
      "componentType": 5126,
      "count": 65532,
      "max": [
        0.6722180843353271,
        0.8268558979034424
      ],
      "min": [
        0.33022043108940125,
        0.3015212416648865
      ],
      "type": "VEC2"
    },
    {
      "bufferView": 0,
      "byteOffset": 262188,
      "componentType": 5125,
      "count": 65532,
      "type": "SCALAR"
    },
    {
      "bufferView": 2,
      "byteOffset": 3145584,
      "componentType": 5126,
      "count": 64003,
      "max": [
        39.489261627197266,
        12.5,
        39.489261627197266
      ],
      "min": [
        -39.489234924316406,
        2.2742300033569336,
        -36.4832878112793
      ],
      "type": "VEC3"
    },
    {
      "bufferView": 2,
      "byteOffset": 3913620,
      "componentType": 5126,
      "count": 64003,
      "max": [
        0.9987325668334961,
        0.999822199344635,
        0.9180044531822205
      ],
      "min": [
        -0.9987318515777588,
        -0.1458716243505478,
        -0.9987317323684692
      ],
      "type": "VEC3"
    },
    {
      "bufferView": 1,
      "byteOffset": 1048528,
      "componentType": 5126,
      "count": 64003,
      "max": [
        0.6709988713264465,
        0.6579822301864624
      ],
      "min": [
        0.3290012776851654,
        0.32900115847587585
      ],
      "type": "VEC2"
    },
    {
      "bufferView": 0,
      "byteOffset": 524316,
      "componentType": 5125,
      "count": 64005,
      "type": "SCALAR"
    }
  ],
  "asset": {
    "extras": {
      "author": "3dkevin (https://sketchfab.com/3dkevin)",
      "license": "CC-BY-4.0 (http://creativecommons.org/licenses/by/4.0/)",
      "source": "https://sketchfab.com/3d-models/wallnut-82dce86cbf354db38178f974ac612f26",
      "title": "Wallnut"
    },
    "generator": "Sketchfab-12.67.0",
    "version": "2.0"
  },
  "bufferViews": [
    {
      "buffer": 0,
      "byteLength": 780336,
      "name": "floatBufferViews",
      "target": 34963
    },
    {
      "buffer": 0,
      "byteLength": 1560552,
      "byteOffset": 780336,
      "byteStride": 8,
      "name": "floatBufferViews",
      "target": 34962
    },
    {
      "buffer": 0,
      "byteLength": 4681656,
      "byteOffset": 2340888,
      "byteStride": 12,
      "name": "floatBufferViews",
      "target": 34962
    }
  ],
  "buffers": [
    {
      "byteLength": 7022544,
      "uri": "scene.bin"
    }
  ],
  "images": [
    {
      "uri": "textures/vango.png"
    }
  ],
  "materials": [
    {
      "doubleSided": true,
      "name": "wood001.001",
      "pbrMetallicRoughness": {
        "baseColorTexture": {
          "index": 0
        },
        "metallicFactor": 0.0,
        "roughnessFactor": 0.5
      }
    }
  ],
  "meshes": [
    {
      "name": "Object_0",
      "primitives": [
        {
          "attributes": {
            "NORMAL": 1,
            "POSITION": 0,
            "TEXCOORD_0": 2
          },
          "indices": 3,
          "material": 0,
          "mode": 4
        }
      ]
    },
    {
      "name": "Object_1",
      "primitives": [
        {
          "attributes": {
            "NORMAL": 5,
            "POSITION": 4,
            "TEXCOORD_0": 6
          },
          "indices": 7,
          "material": 0,
          "mode": 4
        }
      ]
    },
    {
      "name": "Object_2",
      "primitives": [
        {
          "attributes": {
            "NORMAL": 9,
            "POSITION": 8,
            "TEXCOORD_0": 10
          },
          "indices": 11,
          "material": 0,
          "mode": 4
        }
      ]
    }
  ],
  "nodes": [
    {
      "children": [
        1
      ],
      "matrix": [
        -0.625879168510437,
        -1.7317703750155438e-16,
        0.7799200415611267,
        0.0,
        0.7799200415611267,
        -1.3897309270270708e-16,
        0.625879168510437,
        0.0,
        0.0,
        1.0,
        2.220446049250313e-16,
        0.0,
        -3.6709582218463765e-06,
        -4.440889232279414e-16,
        -1.2908312783110887e-06,
        1.0
      ],
      "name": "Sketchfab_model"
    },
    {
      "children": [
        2
      ],
      "name": "root"
    },
    {
      "children": [
        3
      ],
      "matrix": [
        1.0,
        0.0,
        0.0,
        0.0,
        0.0,
        2.220446049250313e-16,
        1.0,
        0.0,
        0.0,
        -1.0,
        2.220446049250313e-16,
        0.0,
        0.0,
        0.0,
        0.0,
        1.0
      ],
      "name": "GLTF_SceneRootNode"
    },
    {
      "children": [
        4,
        5,
        6
      ],
      "matrix": [
        0.10000002384185791,
        0.0,
        0.0,
        0.0,
        0.0,
        0.10000002384185791,
        0.0,
        0.0,
        0.0,
        0.0,
        0.10000002384185791,
        0.0,
        0.0,
        0.0,
        0.0,
        1.0
      ],
      "name": "Half dome sample 100x100_2"
    },
    {
      "mesh": 0,
      "name": "Object_4"
    },
    {
      "mesh": 1,
      "name": "Object_5"
    },
    {
      "mesh": 2,
      "name": "Object_6"
    }
  ],
  "samplers": [
    {
      "magFilter": 9729,
      "minFilter": 9987,
      "wrapS": 10497,
      "wrapT": 10497
    }
  ],
  "scene": 0,
  "scenes": [
    {
      "name": "Sketchfab_Scene",
      "nodes": [
        0
      ]
    }
  ],
  "textures": [
    {
      "sampler": 0,
      "source": 0
    }
  ]
}
